<?xml version="1.0" encoding="utf-8"?>
<svg id="Layer_1" xmlns="http://www.w3.org/2000/svg" version="1.1" viewBox="0 0 1024 1024" xmlns:bx="https://boxy-svg.com">
  <defs>
    <style>
      .st0 {
        fill: #082239;
      }

      .st1 {
        fill: #071e35;
      }

      .st2 {
        fill: #f4f2ee;
      }

      .st3 {
        fill: #061e36;
      }

      .st4 {
        fill: #061d34;
      }

      .st5 {
        fill: #061e35;
      }

      .st6 {
        fill: #fdcfc0;
      }

      .st7 {
        fill: #6a8da6;
      }

      .st8 {
        fill: #041e36;
      }

      .st9 {
        fill: #f3f1ec;
      }

      .st10 {
        fill: #051f37;
      }

      .st11 {
        fill: #688ba3;
      }

      .st12 {
        fill: #051f36;
      }

      .st13 {
        fill: #3a5063;
      }

      .st14 {
        fill: #051e36;
      }

      .st15 {
        fill: #031d35;
      }

      .st16 {
        fill: #faf6ef;
      }

      .st17 {
        fill: #e0e1e0;
      }

      .st18 {
        fill: #f9f6ef;
      }

      .st19 {
        fill: #688ca5;
      }

      .st20 {
        fill: #688ba4;
      }

      .st21 {
        fill: #dbe0e0;
      }

      .st22 {
        fill: #3b5164;
      }

      .st23 {
        fill: #0a2237;
      }
    </style>
    <bx:export>
      <bx:file format="svg"/>
    </bx:export>
  </defs>
  <path class="st14" d="M523.88,62.56c7.67,4.04,14.05,10.06,17.2,18.23,2.32,8.06,1.71,16.41-1.83,24-3.26,5.77-6.27,8.81-12.39,11.42-3.6,2.12-4.67,3.09-5.77,7.18-.31,4.2-.33,8.29-.22,12.49,0,1.47,0,2.93,0,4.4,0,3.58.05,7.15.13,10.73.55-.02,1.09-.03,1.65-.05,25.6-.63,52.6,2,76.34,12.26,3.78,1.59,6.11,2.21,10.01.79,8.22-4.56,15.23-10.54,22-17q.94-.83,1.89-1.67c10.19-9.31,15.1-22.09,18.9-35.04,1.5-5,3.09-7.82,7.21-11.29.33-.33.66-.66,1-1,5.22-.8,9.74-.72,14.19,2.31,9.61,8.31,14.69,21.41,16.81,33.69,1.58,23.34-1.76,46.83-17.41,65.21-.52.59-1.05,1.18-1.59,1.79-.86,1.08-1.71,2.17-2.56,3.25-2.63,2.96-5.34,5.3-8.44,7.75.33,1.65.66,3.3,1,5q1.45-1.16,2.94-2.34c28.59-22.38,61.18-29.85,97.2-26.23,4.68.61,9.26,1.54,13.86,2.57,1.12.25,2.24.49,3.39.75,3.77.85,7.54,1.73,11.3,2.63,1.2.28,2.39.56,3.62.85,8.1,2.02,14.88,4.17,20.13,10.9,2.48,4.57,3.26,8.73,2.56,13.88-2.05,6.77-5.41,12.02-9.5,17.75-.62.88-1.24,1.75-1.88,2.66-4.37,6.09-9.01,11.7-14.22,17.09q-2.49,2.53-4.89,5.55c-14.05,16.52-35.41,27.24-56.52,30.96-12.85.78-25.64.84-38-3,2.45,12.36,4.92,24.72,7.5,37.06.21.99.41,1.97.62,2.99,1.03,4.95,2.08,9.9,3.16,14.84,1.31,6.02,2.54,12.06,3.71,18.11.2,1.03.4,2.06.61,3.12,5.94,31.55,8.38,67.68-9.82,95.76-2.71,3.91-5.67,7.54-8.79,11.13-.65.75-1.29,1.49-1.96,2.26-7.6,8.14-17.59,13.99-27.04,19.74.87.97,1.73,1.94,2.62,2.94.49.55.97,1.09,1.48,1.65,6.28,4.66,18.13,2.86,25.43,1.98,20.18-3.7,30.98-14.7,42.23-30.82,1.17-1.66,2.4-3.28,3.63-4.9q1.84-2.67,1.51-5.36c-1.02-2.84-2.11-5.64-3.27-8.43-5.39-13.87-8.87-29.43-2.88-43.66,3.46-6.63,8.05-11.1,15.26-13.41,6.45-.82,11.52.45,17,4,2.59,2.49,4.79,5.17,7,8l2,2c.48-.89.97-1.79,1.47-2.71,8.26-15,17.87-28.55,34.85-34.04,11.05-2.77,21.39-1.21,31.45,4.26,13.1,8.67,19.87,20.71,23.79,35.62,4.07,26.5-4.26,54.38-19.75,75.88-5.32,6.9-11.39,14.37-18.94,18.86-3.54,2.63-4.7,5.39-6.19,9.39-14.97,36.75-44.42,65.12-80.8,80.65-4.22,1.66-8.5,2.93-12.88,4.1-.71.19-1.41.38-2.14.58-10.45,2.78-20.04,3.99-30.86,3.42.13,1.26.27,2.52.4,3.82.18,1.77.36,3.54.54,5.3.09.82.17,1.63.26,2.48,1.76,17.78,2.03,35.7,2.09,53.55.01,2.17.03,4.34.06,6.51.04,3.2.06,6.4.07,9.6.02.96.04,1.92.05,2.91-.02,7.09-1.61,12.26-6.08,17.8-9.1,7.62-19,7.45-30.37,7.4-1.63,0-3.25,0-4.88.02-4.45.01-8.91.01-13.36,0-4.81,0-9.62,0-14.43.02-9.42.02-18.83.02-28.25.01-7.65,0-15.31,0-22.96,0-1.09,0-2.18,0-3.3,0-2.21,0-4.43,0-6.64,0-20.75.01-41.51,0-62.26,0-18.99,0-37.97,0-56.96.03-19.5.02-39,.03-58.5.03-10.95,0-21.89,0-32.84.02-9.32.01-18.63.02-27.95,0-4.75,0-9.5-.01-14.26,0-4.35.01-8.7,0-13.06-.01-1.57,0-3.15,0-4.72,0-11.05.07-19.69-1.06-28.09-8.74-5.73-6.49-7.69-13.06-7.74-21.54,0-.66,0-1.32-.01-2.01,0-2.16,0-4.32,0-6.48q0-1.11,0-2.24c.12-52.79,11.7-108.17,49.19-147.51q.8-.92,1.62-1.85c10.84-11.87,29.11-21.28,45.13-22.33,2.08,0,4.16.08,6.24.18.27-.6.54-1.2.81-1.81,1.17-2.16,2.38-3.55,4.19-5.19-.93-.52-1.86-1.04-2.82-1.58-23.15-13.24-40.01-31.53-47.21-57.61-8.65-34.17,1.01-70.17,8.3-103.76,1.84-8.48,3.6-16.98,5.34-25.48.45-2.22.91-4.45,1.37-6.67.68-3.3,1.36-6.6,2.03-9.9q-1.43.32-2.89.64c-7.78,1.68-15.18,2.86-23.17,2.73-.94,0-1.88-.02-2.84-.03-12.26-.26-23.01-3.05-34.09-8.35q-1.35-.65-2.73-1.3c-14.21-7.27-27.21-18.37-37.27-30.7-.4-.49-.81-.98-1.23-1.49-6.91-8.44-13.16-17.15-18.77-26.51-.4-.67-.81-1.34-1.22-2.03-1.74-4.4-1.27-9.34-.78-13.97,2.71-5.73,6.82-9.76,12.71-12.06,3.41-1.08,6.83-2.03,10.29-2.94,1.22-.34,2.44-.68,3.7-1.03,15.69-4.19,30.97-6.23,47.24-6.28,1.2,0,2.39-.01,3.62-.02,27.06.22,51.52,8.95,72.56,25.85,1.57,1.24,3.21,2.37,4.88,3.48q.9-2.28,1-5-1.81-2.21-4.44-4.12c-15.02-12.73-24-32.39-25.85-51.89-1.16-18.84,1.09-36.76,13.29-51.86,4-4.35,7.01-6.28,13-6.62,3.6.13,4.8.37,7.88,2.44,4,5.76,6.06,11.73,8,18.44,3.4,11.31,9.36,19.84,17.12,28.62.53.63,1.06,1.25,1.61,1.89,3.82,4.2,8.35,7.31,13.02,10.48.65.44,1.29.88,1.96,1.34q4.82,3.22,10.42,4.29c2.44-.78,4.66-1.62,7-2.62,24.49-9.75,50.85-12.09,77-11.38.1-4.29.14-8.57.12-12.86,0-1.46.02-2.91.06-4.37q.43-8.73-3.36-16.21c-2.53-1.75-5.09-3.14-7.82-4.56-5.87-5.24-9.29-11.94-10.38-19.73-.37-8.71,2.12-15.84,7.63-22.58,8.76-9.33,21.33-13.16,33.62-8.12Z" data-index="1" style="fill: rgb(22, 27, 34);"/>
  <path class="st6" d="M 637 377 C 637.693 377.3 638.393 377.603 639.1 377.91 C 653.01 383.97 665.09 391.31 676 402 C 676.57 402.55 677.15 403.1 677.74 403.67 C 684.86 411.14 688.57 420.39 688.62 430.63 C 688.34 442.12 684.67 450.48 677 459.01 C 676.3 459.81 675.61 460.61 674.89 461.44 C 644.41 494.33 585.25 503.02 543.04 504.88 C 480.01 507.06 398.98 506.73 349.69 461.2 C 340.21 451.3 336.48 440.24 336.69 426.74 C 337.81 413.38 347.2 402.44 357 394.02 C 361.5 390.71 366.16 387.8 371 385.02 C 372.12 384.36 373.24 383.71 374.4 383.03 C 446.2 343.22 562.4 344.71 637 377.02 Z" data-index="2"/>
  <path class="st11" d="M374,513q.91.28,1.85.56c2.72.82,5.43,1.63,8.15,2.44.79.24,1.58.47,2.39.71,11.73,3.46,23.55,6.22,35.55,8.54,1.27.25,2.53.49,3.84.75,8.02,1.51,16.05,2.81,24.16,3.76,1.39.17,2.79.34,4.18.52,16.81,2.15,33.67,2.07,50.59,2.04,3.26,0,6.51,0,9.76.02,17.57.1,35.01-.19,52.52-1.7.71-.06,1.42-.12,2.15-.18,12.82-1.12,25.37-3.2,37.96-5.85,2.68-.56,5.35-1.07,8.04-1.57,11.36-2.15,22.12-5.56,33-9.46q1.85-.58,3.85-.58c16.96,30.89,20.26,68.01,22.8,102.62.26,3.48.52,6.95.78,10.42,1.39,18.5,2.56,37.02,2.72,55.58q.04,1.75.09,3.54c0,1.11.02,2.23.03,3.38q.02,1.47.04,2.98-.47,2.49-2.02,4.12c-3.35,1.87-6.41,1.77-10.15,1.73-.78,0-1.56,0-2.36,0-2.61,0-5.23-.01-7.84-.03-1.87,0-3.74,0-5.62,0-5.09,0-10.17-.02-15.26-.04-5.31-.02-10.63-.02-15.94-.02-10.07,0-20.13-.03-30.2-.06-11.46-.03-22.92-.05-34.37-.07-23.57-.03-47.14-.08-70.71-.15,2.47-2.5,4.85-4.75,7.72-6.77.7-.5,1.41-.99,2.13-1.51.73-.51,1.46-1.01,2.21-1.54q1.05-.74,2.12-1.5c1.43-1,2.87-1.99,4.32-2.97,1.65-1.13,3.27-2.31,4.86-3.53,7.62-5.51,13.65-6.14,22.89-5.95,1.35,0,2.7,0,4.04,0,3.52,0,7.04.02,10.56.06,5.63.06,11.26.08,16.89.07,1.94,0,3.89.04,5.83.07,11.19.03,21.24-2.39,29.42-10.43,8.91-10.37,9.47-22.43,9.43-35.53,0-1.48,0-2.96.02-4.44,0-3.09,0-6.17,0-9.26-.01-3.92,0-7.84.04-11.76.02-3.05.02-6.1.01-9.16,0-1.44,0-2.89.02-4.33.09-12.15-1.43-23.02-9.53-32.56-8.31-8.26-17.65-11.29-29.19-11.38q-1.74,0-3.51.02c-1.25,0-2.49-.01-3.77-.02-3.39-.01-6.78,0-10.17,0-3.56,0-7.13,0-10.69,0-5.98,0-11.96,0-17.94.02-6.9.02-13.79.01-20.69,0-5.94-.01-11.88-.02-17.83,0-3.54,0-7.08,0-10.62,0-3.95-.01-7.9,0-11.85.02-1.16,0-2.32-.01-3.51-.02-11.72.09-20.44,3.32-29.19,11.19-9.22,9.59-9.63,21.08-9.55,33.66,0,1.57,0,3.14-.01,4.72,0,3.28,0,6.56.02,9.83.02,4.17,0,8.34-.01,12.52-.01,3.24,0,6.48,0,9.72,0,1.54,0,3.07,0,4.61-.06,11.57,1.16,21.99,8.71,31.31,7.35,7.41,14.62,10.39,24.84,11.85q.5,11.38,1,23c-13.53.05-27.05.08-40.58.1-6.28.01-12.56.02-18.84.05-6.06.02-12.11.03-18.17.04-2.31,0-4.63.01-6.94.02-3.23.01-6.47.02-9.7.02-.97,0-1.93.01-2.93.02q-1.32,0-2.66,0c-.77,0-1.53,0-2.32,0q-1.87-.25-3.87-2.25-.26-2.33-.27-5.32c0-1.14,0-2.27-.01-3.44,0-1.26.02-2.51.03-3.8,0-1.31.01-2.62.02-3.98q1.04-139.26,27.23-165.46Z" data-index="3" style=""/>
  <path class="st16" d="M 511 168.69 C 512.02 168.69 513.03 168.69 514.08 168.69 C 533.65 168.73 553.98 168.88 573 174 C 573.33 174.66 573.66 175.32 574 176 C 573.49 176.4 572.98 176.8 572.46 177.21 C 563.26 184.8 556.94 194.24 555.77 206.36 C 555.15 216.68 555.8 226.52 558 236.62 C 560.84 249.72 560.44 257.76 555.22 270.16 C 545.49 293.33 544.91 314.72 551 338.99 C 550.19 338.99 549.37 338.98 548.54 338.97 C 540.73 338.91 532.93 338.86 525.12 338.83 C 521.11 338.81 517.1 338.79 513.09 338.76 C 488.01 338.55 463.82 340.03 439 343.99 C 441.11 341.86 443.23 339.77 445.44 337.74 C 452.56 330.1 455.4 322.07 455.32 311.68 C 455.32 310.93 455.31 310.19 455.3 309.42 C 455.06 298.69 452.01 291.25 444.56 283.5 C 438.55 278 431.79 276.33 423.81 276.59 C 416.13 277.7 410.27 281.78 405.47 287.74 C 399.41 297.04 397.81 307.18 399.46 318.03 C 401.42 326.96 404.64 334.96 412.25 340.43 C 416.89 343.22 421.76 344.74 427 345.99 L 427 346.99 C 425.753 347.257 424.49 347.527 423.21 347.8 C 393.5 354.39 353.54 365.91 334.75 392.11 C 334.17 393.06 333.6 394.01 333 394.99 L 331 393.99 C 335.5 365.04 340.96 336.41 347.54 307.87 C 348.05 305.64 348.56 303.41 349.07 301.18 C 353.85 280.17 358.91 259.03 369.37 239.99 C 369.83 239.13 370.3 238.27 370.77 237.38 C 377.63 224.89 386.01 214.12 395.99 203.99 C 396.82 203.14 397.65 202.29 398.5 201.41 C 414.47 185.9 434.56 177.67 455.99 172.99 C 456.89 172.79 457.78 172.58 458.7 172.37 C 475.83 168.85 493.57 168.61 510.99 168.67 Z" data-index="4" style="stroke-linecap: round;"/>
  <path class="st11" d="M 584.463 176.022 C 585.593 176.412 586.713 176.802 587.873 177.202 C 603.823 183.162 617.013 191.442 629.463 203.022 C 630.15 203.635 630.84 204.255 631.533 204.882 C 645.453 217.962 655.023 235.652 662.463 253.022 C 662.963 254.162 663.463 255.292 663.983 256.472 C 668.783 268.192 671.314 280.482 674.064 292.812 C 675.154 297.692 676.303 302.542 677.473 307.402 C 683.323 331.572 688.163 355.812 691.903 380.402 C 692.083 381.552 692.253 382.702 692.433 383.882 C 692.584 384.932 692.733 385.972 692.894 387.052 C 693.024 387.972 693.164 388.882 693.303 389.832 C 693.41 391.298 693.13 392.698 692.463 394.032 C 691.943 393.412 691.423 392.802 690.883 392.162 C 668.983 366.962 637.453 355.262 605.683 347.892 C 603.003 347.172 600.853 346.402 598.463 345.032 C 599.233 344.882 600.013 344.742 600.803 344.582 C 610.134 342.572 616.093 339.602 621.773 331.842 C 627.853 321.942 628.763 310.712 626.833 299.402 C 624.683 291.102 619.673 283.682 612.453 279.022 C 606.493 275.692 600.163 275.042 593.453 276.022 C 584.623 278.882 579.363 284.132 575.143 292.212 C 570.603 301.622 571.043 314.722 574.023 324.592 C 576.973 332.142 581.793 338.382 588.463 343.032 C 582.113 342.592 575.823 341.982 569.523 341.032 C 562.853 340.032 556.193 339.452 549.463 339.032 C 549.79 338.372 550.123 337.705 550.463 337.032 C 550.073 335.122 549.603 333.222 549.083 331.342 C 542.913 308.662 546.853 287.772 555.773 266.592 C 560.063 256.262 560.373 249.082 558.013 238.192 C 554.213 220.622 552.173 202.322 562.103 186.392 C 563.773 184.112 565.523 182.082 567.463 180.032 C 568.01 179.392 568.56 178.742 569.113 178.082 C 574.123 172.842 577.983 173.762 584.463 176.032 L 584.463 176.022 Z" data-index="6" style=""/>
  <path class="st18" d="M455.22,561.74c1.03,0,2.06-.01,3.12-.02,1.12,0,2.24,0,3.39,0q1.78,0,3.6-.02c3.25-.01,6.5-.01,9.75-.01,2.72,0,5.44,0,8.16,0,6.42-.01,12.84-.01,19.25,0,6.61,0,13.21,0,19.82-.03,5.68-.02,11.37-.02,17.05-.02,3.39,0,6.78,0,10.17-.01,3.78-.01,7.57,0,11.35,0q1.67-.01,3.37-.02c7.57.05,13.57.71,19.56,5.77,4.06,4.87,5.56,8,5.59,14.42,0,.66.01,1.32.02,2.01.02,2.18.01,4.36,0,6.54,0,1.52,0,3.05.02,4.57,0,3.19,0,6.38,0,9.57-.01,4.07,0,8.15.04,12.22.02,3.15.02,6.29.01,9.44,0,1.5,0,3,.02,4.5q.1,14.55-4.51,20.37c-5.09,4.82-9.6,6.25-16.53,6.27-1.3.01-2.6.02-3.94.03-.69,0-1.38,0-2.09,0-2.17,0-4.35.02-6.52.04-6.18.06-12.36.09-18.53.11-3.79.02-7.57.05-11.36.08-1.44.01-2.88.02-4.31.02-2.01,0-4.03.02-6.04.04-1.14,0-2.29.01-3.47.02-5.33.64-9.33,3.3-13.55,6.46-.78.58-1.56,1.16-2.37,1.76-.81.61-1.62,1.22-2.46,1.85-.84.62-1.68,1.25-2.55,1.89-3.63,2.69-7.24,5.4-10.81,8.16-.95.73-1.91,1.45-2.89,2.2q-1.2.94-2.43,1.9-2.13,1.16-4.26.73c-.62-.19-1.23-.38-1.87-.57q-.03-.98-.06-1.99c-.1-2.96-.2-5.92-.31-8.89-.03-1.03-.06-2.07-.09-3.13q-.06-1.48-.12-2.99c-.03-.91-.06-1.82-.1-2.76q-.12-2.45-2.32-4.25c-2.72-.18-5.4-.27-8.12-.31-8.52-.32-13.31-1.93-19.25-8.19-3.02-4.65-3.88-8.37-3.92-13.91-.01-1.28-.03-2.55-.04-3.86,0-1.38,0-2.77,0-4.15,0-1.43-.01-2.86-.02-4.29-.01-3-.02-5.99-.01-8.99,0-3.82-.03-7.65-.06-11.47-.02-2.96-.03-5.91-.03-8.87,0-1.41-.01-2.82-.03-4.23q-.16-15.77,5.9-22.24c4.52-4.05,8.81-5.74,14.8-5.75Z" data-index="7"/>
  <path class="st0" d="M185,747q3.04-.39,6.91-.4c.68,0,1.36,0,2.06,0,1.44,0,2.88,0,4.32.02,2.21.02,4.41,0,6.62-.02,1.4,0,2.79,0,4.19.01,1.28,0,2.55,0,3.87.01,1,.13,2.01.26,3.04.39,2.24,3.36,2.25,4.44,2.24,8.37,0,1.11,0,2.23,0,3.38,0,1.22-.01,2.45-.02,3.71,0,1.29,0,2.58,0,3.9,0,3.53-.01,7.07-.03,10.6-.01,3.69-.01,7.38-.02,11.07,0,6.99-.02,13.98-.04,20.97-.02,7.96-.03,15.92-.04,23.88-.02,16.37-.06,32.74-.1,49.12q1.31,0,2.65,0c8.23-.02,16.45-.04,24.68-.05,4.23,0,8.46-.01,12.69-.02,4.08-.01,8.16-.02,12.24-.02,1.56,0,3.12,0,4.68-.01,2.18,0,4.35,0,6.53,0,1.24,0,2.48,0,3.76,0q2.78.12,3.78,1.12c.25,4.47.19,8.96.19,13.44.01,1.27.02,2.53.04,3.84,0,1.21,0,2.41,0,3.66,0,1.11,0,2.23.01,3.38q-.24,2.69-2.24,4.69-1.84.25-4.11.24-1.29,0-2.61,0c-.95,0-1.89-.01-2.87-.02q-1.49,0-3.02,0c-3.3,0-6.6-.02-9.9-.03-2.28,0-4.57,0-6.85,0-6.02,0-12.04-.03-18.06-.05-6.14-.02-12.28-.03-18.42-.04-12.05-.02-24.11-.06-36.16-.1-2.17-3.52-2.25-6.36-2.25-10.46,0-.65,0-1.29,0-1.96,0-2.16,0-4.33,0-6.49,0-1.55,0-3.1-.01-4.66,0-4.21,0-8.43,0-12.64,0-4.41,0-8.82,0-13.22,0-7.4,0-14.8.01-22.21.01-8.56,0-17.13,0-25.69,0-7.35-.01-14.7,0-22.04,0-4.39,0-8.78,0-13.17,0-4.13,0-8.25,0-12.38,0-1.52,0-3.03,0-4.55,0-2.07,0-4.13.01-6.2,0-1.16,0-2.31,0-3.51q.25-2.83,2.25-5.83Z" data-index="10" style=""/>
  <path class="st11" d="M747,480c2.95,1.31,4.72,2.62,6.81,5.06,5.48,5.6,12.43,9.1,19.19,12.94,1.97,1.13,3.94,2.26,5.91,3.39,2.07,1.18,4.14,2.36,6.21,3.54q1.49.85,3.02,1.72c.95.53,1.89,1.07,2.87,1.62.84.48,1.68.95,2.55,1.45,2.43,1.27,4.88,2.31,7.44,3.28-3.39,11.3-10.33,21.19-18,30q-1.05,1.23-2.12,2.48c-19.97,22.88-46.48,38.91-76.88,42.52-4.67.3-9.34.36-14,0-1.77-1.77-1.62-4.38-1.98-6.78-.19-1.22-.38-2.45-.58-3.71-.1-.65-.2-1.31-.31-1.98-2.02-12.88-4.6-25.5-7.8-38.14-1.29-5.1-2.36-10.22-3.33-15.39.87-.01,1.75-.03,2.65-.04,20.99-.81,39.6-7.49,54.35-22.96,5.23-5.94,9.75-12.33,14-19Z" data-index="11" style=""/>
  <path class="st10" d="M807,760q2.86-.37,6.47-.36c1.29,0,2.59,0,3.92,0,.67,0,1.35.02,2.04.03,2.06.02,4.12.02,6.18.01q10.12.06,12.39,2.32c.17,2.44.23,4.76.2,7.2,0,.71,0,1.41,0,2.14-.01,2.26-.04,4.52-.06,6.79-.01,1.53-.02,3.07-.03,4.6-.02,3.76-.06,7.52-.1,11.28h27c.02,3.94.04,7.88.06,11.94,0,1.24.02,2.49.03,3.77,0,.97,0,1.94,0,2.95,0,1,.01,2,.02,3.03q-.11,2.32-1.11,3.32c-1.93.09-3.86.11-5.79.1q-1.75,0-3.54,0c-1.23,0-2.46-.02-3.73-.03q-1.85,0-3.74-.01c-3.06-.01-6.13-.03-9.19-.05.08,7.31.18,14.62.29,21.93.05,3.4.1,6.79.13,10.19.04,3.91.1,7.82.16,11.73.01,1.21.02,2.42.04,3.67q.1,8.45,2.38,16.48c2.89.96,4.64,1.11,7.63,1.06q1.33-.01,2.69-.02t2.8-.04c1.84-.03,3.67-.05,5.51-.06.81-.01,1.63-.02,2.47-.04q1.9.1,2.9,1.1c.09,1.78.11,3.56.1,5.35q0,1.62,0,3.27-.01,1.7-.03,3.44c0,1.14,0,2.28-.01,3.46-.01,2.83-.03,5.65-.05,8.48-7.72,3.48-14.25,4.23-22.69,4.31-.94.03-1.89.06-2.86.09-10.25.09-18.06-3.06-25.48-10.13-8.99-10.32-9.27-22.92-9.17-35.93,0-1.4,0-2.8,0-4.2,0-3.65.03-7.31.05-10.96.02-3.74.03-7.48.04-11.22.02-7.32.06-14.64.1-21.96h-19c-.03-3.98-.05-7.96-.06-11.94,0-1.14-.02-2.27-.03-3.44,0-1.08,0-2.16,0-3.27,0-1-.01-2-.02-3.03q.11-2.32,1.11-3.32c1.34-.09,2.69-.11,4.04-.1.81,0,1.62,0,2.45,0,.85,0,1.7.02,2.58.03.85,0,1.71,0,2.59.01,2.12.01,4.23.03,6.35.05-.01-.92-.02-1.85-.03-2.8-.03-3.43-.06-6.85-.08-10.28-.01-1.48-.02-2.97-.04-4.45-.02-2.13-.04-4.26-.04-6.4-.01-1.28-.02-2.57-.03-3.89q.23-3.19,2.23-6.19Z" data-index="12" style="fill: rgb(8, 34, 57);"/>
  <path class="st22" d="M830.38,393.06c8.76,5.02,12.49,12.31,15.16,21.84,3.7,16.63-1.34,35.16-8.53,50.1-.42.91-.84,1.82-1.27,2.76-5.81,11.71-15.9,22.02-26.73,29.24-4.17-.32-7.21-2.05-10.79-4.13-1.11-.64-2.21-1.28-3.36-1.95-.57-.34-1.15-.67-1.74-1.02-1.71-1.01-3.43-2-5.15-3-21.83-12.72-34.3-25.17-40.96-49.9-.82-4.07-1.19-7.98-1.25-12.12-.03-1.01-.05-2.03-.08-3.07.37-3.16,1.22-4.48,3.33-6.8,2.76.3,3.91.91,5.92,2.86,3.46,5.24,4.73,11.22,6.43,17.21.28.96.57,1.91.86,2.9.25.87.49,1.74.75,2.63,1.23,2.86,2.65,4.41,5.03,6.39q3.41,1.25,7,1c2.83-1.63,3.6-2.19,5-5,.29-1.87.51-3.74.69-5.62,1.73-14.49,12.21-31.18,22.94-40.88,8.21-6.36,17.07-7.87,26.75-3.44Z" data-index="13" style="fill: rgb(58, 80, 99);"/>
  <path class="st13" d="M353,232c-1.41,4.51-2.89,8.9-4.88,13.19-2.3,5.01-4.08,10.18-5.88,15.38q-.62,1.7-1.25,3.43c-.37,1.24-.75,2.47-1.13,3.75-2.25,3.92-3.61,4.49-7.82,5.65-.8.18-1.6.36-2.42.54-.83.2-1.67.4-2.53.61-20.58,4.48-38.96,1.09-57.09-9.54-4.16-2.81-8.11-5.82-12-9-.75-.61-1.5-1.22-2.28-1.85-10.66-8.98-22.68-22.51-28.72-35.15q1-3,2.87-4.07c6.57-2.54,13.1-4.24,20.01-5.61,1-.21,2-.42,3.03-.64,37.04-7.57,70.69-.24,100.1,23.33Z" data-index="14" style=""/>
  <path class="st13" d="M784,211.5c.83.2,1.66.4,2.52.61,4.28,1.1,7.8,2.34,11.48,4.89-11.59,23.96-33.77,46.76-59,56-7.64,2.54-14.65,3.52-22.69,3.44-1.04,0-2.08,0-3.15-.01-9.21-.17-18.81-1.25-27.17-5.43q-.87-2.11-1.73-4.89c-.32-1.01-.65-2.03-.98-3.07-.34-1.08-.68-2.17-1.03-3.29-2.62-8.14-5.38-15.9-9.22-23.55q-1.03-2.2-1.03-4.2c32.05-28.33,72.16-30.22,112-20.5Z" data-index="15" style=""/>
  <path class="st20" d="M350,524c-.25.63-.5,1.26-.76,1.91-2.88,7.57-4.89,15.17-6.62,23.09-.15.67-.29,1.35-.45,2.04-6.97,32.29-9.98,65.05-12.18,97.96h-52c.79-10.27,1.99-19.97,4-30,.14-.69.28-1.38.42-2.09,6.26-30.62,20.87-67.26,47.58-85.91,2.72-1.62,5.49-3.11,8.31-4.56.69-.36,1.39-.72,2.1-1.09,3.67-1.78,5.7-2.63,9.58-1.35Z" data-index="16" style="fill: rgb(104, 139, 163);"/>
  <path class="st15" d="M321.78,793.76c2.14,0,4.28-.04,6.43-.07,1.36,0,2.71-.01,4.07-.02q1.86-.01,3.76-.03c.98.12,1.96.24,2.97.36,2.11,3.17,2.25,3.92,2.25,7.55,0,.93.01,1.86.02,2.83,0,1.02,0,2.04-.01,3.09,0,1.08,0,2.15.01,3.26,0,3.57,0,7.14,0,10.7,0,2.47,0,4.95,0,7.42,0,5.19,0,10.38-.01,15.57-.01,6.66,0,13.32,0,19.98,0,5.11,0,10.22,0,15.34,0,2.46,0,4.91,0,7.37,0,3.43,0,6.86-.01,10.29,0,1.02,0,2.04.01,3.09q0,1.4-.02,2.83c0,.81,0,1.62,0,2.46-.28,2.45-1.03,4.09-2.25,6.22-4.09.07-8.19.13-12.28.16-1.39.02-2.79.04-4.18.06-2,.04-4,.05-6,.07-1.2.02-2.41.03-3.65.05-.95-.11-1.91-.22-2.89-.34-2.14-3.2-2.25-4.01-2.25-7.68,0-.96,0-1.92-.01-2.91q0-1.58.02-3.19c0-1.11,0-2.22,0-3.37,0-3.68,0-7.36.02-11.04,0-2.55,0-5.1,0-7.65,0-5.34,0-10.69.02-16.03.02-6.19.02-12.37.02-18.56,0-5.95,0-11.89.01-17.84,0-2.53,0-5.07,0-7.6,0-3.53.01-7.06.02-10.6,0-1.06,0-2.12,0-3.21,0-.96,0-1.91.01-2.9,0-.84,0-1.67,0-2.53.36-5.27,9.76-3.12,13.91-3.14Z" data-index="17" style="fill: rgb(8, 34, 57);"/>
  <path class="st12" d="M777.32,842.97c-1.67-15.56-9.19-29.17-21.07-39.22-23.69-17.86-56.4-18.82-80.69-1.5-12.76,10.24-21.17,24.51-23.56,40.75-1.91,19.06,2.05,36.55,14.1,51.62,13.22,14.21,32.38,20.03,51.28,20.75,16.01-.29,32.01-7.24,43.6-18.25,10.86-11.84,16.17-25.69,16.51-41.63,0-1.12.01-2.21.02-3.3.02-3.08-.03-6.14-.18-9.22ZM745.31,852.88q0,1.18-.02,2.39c-.24,11.76-3.82,19.26-12.11,27.55-7.46,5.12-15.25,6.22-24.19,5.19-8.16-1.98-15.07-6.33-19.57-13.5-5.52-10.59-6.08-23.25-3.75-34.91,3.18-9.38,8.4-16.16,17.32-20.59,6.88-2.29,17.58-2.22,24.56.06,8.98,5.06,13.65,10.83,16.52,20.64,1.06,4.41,1.26,8.65,1.23,13.18Z" style="fill: rgb(8, 34, 57);"/>
  <path class="st8" d="M474.32,806.88c-9.07-9.76-21.43-15.49-34.71-16.19-10.91-.27-22.33.5-30.75,8.29-.72.74-1.41,1.45-2.11,2.17-.73.74-1.43,1.46-2.14,2.19-.55.57-1.08,1.12-1.61,1.67-.08-6.59-.16-13.17-.26-19.76-.05-3.36-.1-6.72-.14-10.07-.04-3.29-.08-6.58-.13-9.87-.02-1.28-.04-2.52-.06-3.75-.01-1.25-.02-2.46-.03-3.66-.02-1.15-.04-2.28-.06-3.4-.05-3.94-.08-5.12-2.32-8.48-.98-.12-1.93-.24-2.87-.36q-1.83.01-3.63.03c-1.34,0-2.63.01-3.93.02-2.07.03-4.14.06-6.21.07-4.88.01-13.18-2.38-13.48,3.9q0,1.83,0,3.63c0,2.14-.01,4.27-.01,6.41,0,1.57,0,3.14,0,4.72-.01,4.27-.02,8.54-.02,12.81,0,3.63,0,7.26,0,10.89,0,8.51-.01,17.03-.01,25.54,0,8.87,0,17.73-.02,26.6-.01,7.66-.02,15.32-.02,22.97,0,4.56,0,9.12,0,13.68-.01,4.37-.02,8.73-.01,13.1,0,1.6,0,3.21,0,4.81,0,2.24-.02,4.49-.01,6.73,0,.69,0,1.35,0,2.02q0,3.63.25,6.42,2,2,4.78,2.24,1.77,0,3.5-.01c1.29,0,2.54,0,3.79,0,1.35-.01,2.67-.02,3.98-.04,4.65,0,9.3.07,13.94-.19q1-1,1.54-3.29c.18-.94.35-1.86.53-2.78.18-.95.36-1.87.54-2.79.14-.73.27-1.44.4-2.15,7.12,7.54,13.86,10.83,24,13,14.88,1.51,29.3-2,41.47-10.78,12.22-10.21,18.9-23.48,21.3-39.08,2.32-21.15-2.1-40.43-15.45-57.25ZM450,879c-4.83,5.43-11.23,9.33-18.48,10.35-7.96.28-14.61-1.49-20.83-6.54-7.23-6.86-9.57-15.9-10.02-25.64-.22-12.26.37-23.74,8.68-33.54,8.58-8.4,24.63-8.3,34.65-2.23,7.23,5.77,10.79,14.12,12.76,22.98.84,12.11.35,24.24-6.75,34.62Z" style="fill: rgb(8, 34, 57);"/>
  <path class="st13" d="M 386.59 504.2 C 390.95 505.22 395.21 506.47 399.5 507.75 C 415.03 512.25 430.57 515.78 446.56 518.19 C 447.59 518.34 448.61 518.5 449.67 518.66 C 453.11 519.15 456.55 519.59 460 520 C 460.71 520.09 461.42 520.18 462.16 520.27 C 477.1 522.07 491.97 522.34 507 522.32 C 510.9 522.32 514.8 522.34 518.71 522.37 C 557.75 522.47 597.88 517.63 634.93 504.89 C 637.91 504.03 639.95 503.55 643 504.01 C 644.493 505.03 645.93 506.197 647.31 507.51 C 648.01 508.157 648.713 508.813 649.42 509.48 C 649.94 509.99 652.61 513.016 652.122 513.536 C 651.342 514.329 649.183 514.413 647.57 515.22 C 605.5 529.93 560.26 533.39 516.04 533.38 C 512.82 533.38 509.6 533.39 506.38 533.42 C 465.76 533.76 410.235 533.257 373.985 513.028 C 374.915 511.898 376.554 510.751 377.494 509.621 C 378.014 508.991 378.84 508.38 379.38 507.73 C 381.7 505.24 383.09 503.93 386.58 504.21 L 386.59 504.2 Z" data-index="20" style=""/>
  <path class="st19" d="M784,211.5c.83.2,1.66.4,2.52.61,4.28,1.1,7.8,2.34,11.48,4.89-.33.99-.66,1.98-1,3-.76-.06-1.52-.12-2.3-.18q-47.96-3.82-90.07,17.25c-5.68,4.86-10.95,10.13-16.13,15.52-1.46,1.51-2.97,2.97-4.49,4.42h-2c-1.67-3.79-3.34-7.58-5-11.38-.48-1.08-.95-2.16-1.45-3.27l-1.37-3.12c-.42-.95-.84-1.91-1.27-2.89q-.92-2.34-.92-4.34c32.05-28.33,72.16-30.22,112-20.5Z" data-index="22" style="fill: rgb(104, 139, 163);"/>
  <path class="st8" d="M637.58,855.85q-.29-.93-.58-1.85c-1.07-3.49-2.35-6.75-4-10-5.08-7.18-11.86-13.74-20.56-15.88-.83-.04-1.63-.08-2.44-.12v-2c4.22-1.32,7.56-3.48,11.01-6.18,7.33-6.7,10.42-15.3,11.27-25.02.38-13.32-3.41-24.64-12.47-34.55q-14.45-13.44-55.04-13.39c-1.49,0-2.97,0-4.46,0-3.13,0-6.27,0-9.4,0-4.04,0-8.08,0-12.13,0-3.18,0-6.37,0-9.55,0-1.51,0-3.02,0-4.54,0-2.17,0-4.33,0-6.5,0-.67,0-1.32,0-1.97,0-4.39,0-7.11-1.2-7.35,3.79q0,1.83,0,3.63c0,2.14-.01,4.27-.01,6.41,0,1.57,0,3.14,0,4.72-.01,4.27-.02,8.54-.02,12.81,0,3.63,0,7.26,0,10.89,0,8.51-.01,17.03-.01,25.54,0,8.87,0,17.73-.02,26.6-.01,7.66-.02,15.32-.02,22.97,0,4.56,0,9.12,0,13.68-.01,4.37-.02,8.73-.01,13.1,0,1.6,0,3.21,0,4.81,0,2.24-.02,4.49-.01,6.73,0,.69,0,1.35,0,2.02q0,3.63.25,6.42,2.23,2.23,8.19,2.25c.89,0,1.75-.01,2.62-.02,2.86,0,5.72,0,8.58-.02,2.03-.01,4.07-.02,6.1-.03,13.07-.04,26.14-.2,39.2-.55q1.14-.03,2.25-.06c2.15-.06,4.29-.12,6.44-.18.67-.02,1.31-.04,1.96-.06,3.37-.11,6.58-.3,9.91-.8,14.41-2.71,27.94-7.68,36.6-20.19,6.31-10.99,9.19-22.82,6.73-35.48ZM543,776c5.53-.09,11.06-.17,16.6-.22,1.88-.02,3.76-.05,5.64-.08,2.71-.05,5.43-.07,8.14-.09q1.24-.03,2.51-.06c6.07,0,10.85,1.39,16.12,4.45,4.54,4.68,4.31,9.99,4.31,16.23-.12,5.5-.72,9.55-4.31,13.77-5.62,4.03-11.01,4.55-17.75,4.39q-1.35,0-2.72-.02c-2.84-.02-5.68-.07-8.53-.12-1.94-.02-3.88-.04-5.82-.05-4.73-.04-9.45-.12-14.18-.2v-38ZM602,870c-1.94,5.2-5.31,9.03-10,12-5.36,2.3-10.26,2.26-15.99,2.2q-1.42,0-2.87,0c-3.01-.01-6.01-.04-9.02-.06-2.04-.01-4.09-.02-6.13-.03-5-.02-9.99-.06-14.99-.1v-42q9.84-.09,19.88-.19c2.05-.03,4.1-.05,6.21-.08,1.66,0,3.31-.02,4.97-.02.83-.02,1.67-.03,2.53-.05,7.33,0,14.48,1.03,20.36,5.65,5.54,7.22,6.15,13.8,5.06,22.69Z" style="fill: rgb(8, 34, 57);"/>
  <path class="st19" d="M353,232c-1.94,6.21-4.3,12.09-7,18-1.01,2.33-2.01,4.66-3,7l-1-2c-1.33-.67-2.67-1.34-4-2q-1.52-1.35-2.96-2.91c-.55-.57-1.09-1.15-1.66-1.74-.58-.61-1.16-1.22-1.76-1.85-15.67-16.06-35.74-28.16-58.76-28.67-2-.01-3.99-.02-5.99-.02-1.05,0-2.11,0-3.19,0-8.6.06-17.03.74-25.57,1.75-3.39.4-6.7.52-10.12.44v-4c7.16-3.16,14.21-5.16,21.88-6.69,1-.21,2-.42,3.03-.64,37.04-7.57,70.69-.24,100.1,23.33Z" data-index="24" style="fill: rgb(104, 139, 163);"/>
  <path class="st1" d="M479,429q2.61,1.79,5.19,4.19c10.52,9.14,21.09,11.57,34.66,10.99,10.18-.83,18.42-5.93,25.15-13.39q2-1.79,4-2.13c3.65.52,5.59,1.01,8.5,3.41,1.94,3.79,2.61,6.84,1.5,10.94-3.81,6.31-9.75,10.35-16,14-.64.38-1.27.76-1.93,1.15-12.08,6.64-27.83,8.22-41.2,4.97-11.19-3.48-23.32-9.1-30.74-18.5-1.49-3.48-1.59-5.87-1.12-9.62,3.4-5.21,5.79-6.63,12-6Z" data-index="25"/>
  <path class="st23" d="M472.46,583.47c.96,0,1.92-.02,2.9-.03,3.17-.02,6.34-.02,9.5,0,2.2,0,4.4-.01,6.61-.02,4.62-.01,9.23,0,13.85,0,5.92.02,11.83,0,17.75-.04,4.55-.02,9.1-.02,13.64-.01,2.18,0,4.36,0,6.54-.02,3.05-.02,6.1,0,9.15.02q1.35-.02,2.73-.04c4.43.07,6.31.26,9.96,2.98q1.9,2.69,1.9,6.31-1.34,4.54-4,6.38c-4.01,1.34-7.89,1.16-12.07,1.18q-1.39,0-2.81.02c-3.08.02-6.15.03-9.23.04-1.05,0-2.1,0-3.18.01-5.56.02-11.11.04-16.67.04-5.74.01-11.48.05-17.23.09-4.41.03-8.83.03-13.24.04-2.12,0-4.23.02-6.35.04-2.96.02-5.92.02-8.88.02q-1.31.02-2.65.04c-4.1-.04-6.17-.19-9.73-2.41-2.11-2.26-2.62-3.06-2.52-6.1,0-.66,0-1.32,0-2,2.01-7.09,7.9-6.58,14.03-6.53Z" data-index="26"/>
  <path class="st13" d="M277,667h52v30c-6.46.11-12.92.21-19.38.27-2.2.03-4.39.06-6.59.1-3.16.06-6.32.09-9.48.11-.98.03-1.96.05-2.97.08-4.68,0-6.85-.02-10.68-2.91-6.15-8.58-2.9-15.01-2.9-27.66Z" data-index="27" style=""/>
  <path class="st22" d="M667,123c5.37,4.52,5.76,12.21,6.33,18.82.52,18.89-6.05,35.56-18.21,49.97-1.92,2.01-3.83,3.63-6.11,5.21-3.2-1.39-5.15-3.01-7.5-5.56-4.29-4.43-9.07-7.97-14.06-11.55q-2.44-1.88-3.44-3.88,1.31-.87,2.64-1.77c16.82-11.47,30.14-25.4,37.42-44.75.85-2.26,1.82-4.36,2.94-6.49Z" data-index="28" style="fill: rgb(58, 80, 99);"/>
  <path class="st22" d="M356,122h2c.27.86.54,1.72.81,2.61,7.1,21.42,20.98,37.52,39.19,50.39q.99.49,2,1v2c-1.93,1.57-3.86,3.04-5.88,4.5-6.29,4.68-11.74,9.79-17.12,15.5-12.79-10.13-21.37-24.07-24.41-40.2-.25-2.27-.44-4.53-.59-6.8-.07-.96-.13-1.92-.2-2.9-.33-9.22,1.68-17.32,4.2-26.1Z" data-index="29" style="fill: rgb(58, 80, 99);"/>
  <path class="st5" d="M471.46,615.5q1.1,0,2.22-.02c2.42-.01,4.83,0,7.25.02,1.68,0,3.37,0,5.05,0,3.53,0,7.05.01,10.58.03,4.52.03,9.03.03,13.55.01,3.48,0,6.96,0,10.43.01,1.66,0,3.33,0,4.99,0,2.33,0,4.66.01,6.99.04.68,0,1.37,0,2.08-.01,4.28.07,6.98.81,10.39,3.42,1.55,3.09,1.29,5.59,1,9q-1.54,2.19-4,4c-2.68.39-4.96.55-7.64.52-.76,0-1.53.01-2.32.02-2.52.02-5.05,0-7.57,0-1.76,0-3.51,0-5.27.01-3.68,0-7.36,0-11.04-.02-4.71-.02-9.43,0-14.14.01-3.63.01-7.25,0-10.88,0-1.74,0-3.48,0-5.21,0-2.43.01-4.86,0-7.29-.03-.72,0-1.44.02-2.18.02-3.42-.06-5.18-.31-7.91-2.45-1.68-2.26-2.13-3.31-2.12-6.09-.02-.66-.04-1.32-.07-2,1.9-6.04,7.62-6.58,13.09-6.5Z" data-index="30"/>
  <path class="st3" d="M336,741c5.04,4.51,7.7,8.99,8.38,15.75-.17,5.54-2.11,10.7-5.8,14.86-5.32,4.67-10.1,5.87-17.01,5.7-4.92-.59-8.77-2.35-12.13-6.03-4.58-6.18-5.01-11.72-4.43-19.28,2.02-6.3,6.8-10.2,12.44-13.38,6.51-1.59,12.76-1.04,18.56,2.38Z" data-index="31" style="fill: rgb(8, 34, 57);"/>
  <circle style="fill: rgb(7, 30, 53);" transform="matrix(0.289474, 0, 0, 0.279317, 295.17514, 322.686615)" cx="481" cy="270.5" r="57"/>
  <circle style="fill: rgb(7, 30, 53);" transform="matrix(0.289474, 0, 0, 0.279317, 451.716644, 322.629791)" cx="481" cy="270.5" r="57"/>
  <circle style="stroke: rgb(0, 0, 0); fill: rgb(104, 139, 163);" transform="matrix(0.128378, 0, 0, 0.125254, 462.0289, 37.159946)" cx="401" cy="422.75" r="113"/>
  <circle style="paint-order: stroke; transform-origin: 294.25px 306.5px 0px; fill: rgb(22, 27, 34);" transform="matrix(0.332517, 0.052666, -0.063904, 0.403476, 305.487579, 3.263182)" cx="294.25" cy="306.5" r="87.25"/>
  <circle style="paint-order: stroke; fill: rgb(244, 242, 238);" transform="matrix(0.086259, 0, 0, 0.107205, 568.853516, 275.666901)" cx="294.25" cy="306.5" r="87.25"/>
  <circle style="paint-order: stroke; fill: rgb(22, 27, 34); transform-origin: 294.25px 306.5px 0px;" transform="matrix(0.332517, -0.052665, 0.063905, 0.403476, 133.397415, 4.929311)" cx="294.25" cy="306.5" r="87.25"/>
  <circle style="paint-order: stroke; fill: rgb(244, 242, 238);" transform="matrix(0.086259, 0, 0, 0.107205, 405.712372, 275.626831)" cx="294.25" cy="306.5" r="87.25"/>
</svg>